<?xml version="1.0" encoding="UTF-8" standalone="no"?><svg xmlns="http://www.w3.org/2000/svg" xmlns:xlink="http://www.w3.org/1999/xlink" clip-rule="evenodd" stroke-miterlimit="4.00" viewBox="0 0 1024 768"><desc>SVG generated by Keynote</desc><defs></defs><g transform="matrix(1.00, 0.00, -0.00, -1.00, 0.0, 768.0)"><path d="M 0.0 768.0 L 1024.0 768.0 L 1024.0 0.0 L 0.0 0.0 Z M 0.0 768.0 " fill="#FFFFFF"></path><path d="M 0.0 0.0 L 934.0 0.0 " fill="none" stroke="#747676" stroke-width="3.00" stroke-linecap="round" stroke-linejoin="round" stroke-dasharray="0.0, 9.0" transform="matrix(1.00, 0.00, 0.00, -1.00, 45.0, 644.0)"></path><text xml:space="preserve" font-family="DINCondensed-Bold" font-weight="bold" font-size="48.4" fill="#747676" transform="matrix(1.00, 0.00, -0.00, -1.00, 49.0, 673.0)">E</text><text xml:space="preserve" font-family="DINCondensed-Bold" font-weight="bold" font-size="48.4" fill="#747676" transform="matrix(1.00, 0.00, -0.00, -1.00, 66.9, 673.0)">N</text><text xml:space="preserve" font-family="DINCondensed-Bold" font-weight="bold" font-size="48.4" fill="#747676" transform="matrix(1.00, 0.00, -0.00, -1.00, 88.4, 673.0)">C</text><text xml:space="preserve" font-family="DINCondensed-Bold" font-weight="bold" font-size="48.4" fill="#747676" transform="matrix(1.00, 0.00, -0.00, -1.00, 108.0, 673.0)">O</text><text xml:space="preserve" font-family="DINCondensed-Bold" font-weight="bold" font-size="48.4" fill="#747676" transform="matrix(1.00, 0.00, -0.00, -1.00, 128.6, 673.0)">R</text><text xml:space="preserve" font-family="DINCondensed-Bold" font-weight="bold" font-size="48.4" fill="#747676" transform="matrix(1.00, 0.00, -0.00, -1.00, 149.3, 673.0)">E</text><text xml:space="preserve" font-family="DINCondensed-Bold" font-weight="bold" font-size="48.4" fill="#747676" transform="matrix(1.00, 0.00, -0.00, -1.00, 167.1, 673.0)"> </text><text xml:space="preserve" font-family="DINCondensed-Bold" font-weight="bold" font-size="48.4" fill="#747676" transform="matrix(1.00, 0.00, -0.00, -1.00, 176.1, 673.0)">P</text><text xml:space="preserve" font-family="DINCondensed-Bold" font-weight="bold" font-size="48.4" fill="#747676" transform="matrix(1.00, 0.00, -0.00, -1.00, 195.8, 673.0)">L</text><text xml:space="preserve" font-family="DINCondensed-Bold" font-weight="bold" font-size="48.4" fill="#747676" transform="matrix(1.00, 0.00, -0.00, -1.00, 213.7, 673.0)">U</text><text xml:space="preserve" font-family="DINCondensed-Bold" font-weight="bold" font-size="48.4" fill="#747676" transform="matrix(1.00, 0.00, -0.00, -1.00, 234.3, 673.0)">S</text><text xml:space="preserve" font-family="DINCondensed-Bold" font-weight="bold" font-size="48.4" fill="#747676" transform="matrix(1.00, 0.00, -0.00, -1.00, 253.9, 673.0)"> </text><text xml:space="preserve" font-family="DINCondensed-Bold" font-weight="bold" font-size="48.4" fill="#747676" transform="matrix(1.00, 0.00, -0.00, -1.00, 262.9, 673.0)">S</text><text xml:space="preserve" font-family="DINCondensed-Bold" font-weight="bold" font-size="48.4" fill="#747676" transform="matrix(1.00, 0.00, -0.00, -1.00, 282.6, 673.0)">I</text><text xml:space="preserve" font-family="DINCondensed-Bold" font-weight="bold" font-size="48.4" fill="#747676" transform="matrix(1.00, 0.00, -0.00, -1.00, 292.4, 673.0)">M</text><text xml:space="preserve" font-family="DINCondensed-Bold" font-weight="bold" font-size="48.4" fill="#747676" transform="matrix(1.00, 0.00, -0.00, -1.00, 319.3, 673.0)">P</text><text xml:space="preserve" font-family="DINCondensed-Bold" font-weight="bold" font-size="48.4" fill="#747676" transform="matrix(1.00, 0.00, -0.00, -1.00, 339.0, 673.0)">L</text><text xml:space="preserve" font-family="DINCondensed-Bold" font-weight="bold" font-size="48.4" fill="#747676" transform="matrix(1.00, 0.00, -0.00, -1.00, 356.9, 673.0)">E</text><text xml:space="preserve" font-family="DINCondensed-Bold" font-weight="bold" font-size="48.4" fill="#747676" transform="matrix(1.00, 0.00, -0.00, -1.00, 374.8, 673.0)"> </text><text xml:space="preserve" font-family="DINCondensed-Bold" font-weight="bold" font-size="48.4" fill="#747676" transform="matrix(1.00, 0.00, -0.00, -1.00, 383.8, 673.0)">:</text><text xml:space="preserve" font-family="DINCondensed-Bold" font-weight="bold" font-size="48.4" fill="#747676" transform="matrix(1.00, 0.00, -0.00, -1.00, 392.8, 673.0)"> </text><text xml:space="preserve" font-family="DINCondensed-Bold" font-weight="bold" font-size="48.4" fill="#747676" transform="matrix(1.00, 0.00, -0.00, -1.00, 401.8, 673.0)">S</text><text xml:space="preserve" font-family="DINCondensed-Bold" font-weight="bold" font-size="48.4" fill="#747676" transform="matrix(1.00, 0.00, -0.00, -1.00, 421.4, 673.0)">P</text><text xml:space="preserve" font-family="DINCondensed-Bold" font-weight="bold" font-size="48.4" fill="#747676" transform="matrix(1.00, 0.00, -0.00, -1.00, 441.1, 673.0)">R</text><text xml:space="preserve" font-family="DINCondensed-Bold" font-weight="bold" font-size="48.4" fill="#747676" transform="matrix(1.00, 0.00, -0.00, -1.00, 461.7, 673.0)">I</text><text xml:space="preserve" font-family="DINCondensed-Bold" font-weight="bold" font-size="48.4" fill="#747676" transform="matrix(1.00, 0.00, -0.00, -1.00, 471.6, 673.0)">N</text><text xml:space="preserve" font-family="DINCondensed-Bold" font-weight="bold" font-size="48.4" fill="#747676" transform="matrix(1.00, 0.00, -0.00, -1.00, 493.0, 673.0)">G</text><text xml:space="preserve" font-family="DINCondensed-Bold" font-weight="bold" font-size="48.4" fill="#747676" transform="matrix(1.00, 0.00, -0.00, -1.00, 513.6, 673.0)"> </text><text xml:space="preserve" font-family="DINCondensed-Bold" font-weight="bold" font-size="48.4" fill="#747676" transform="matrix(1.00, 0.00, -0.00, -1.00, 522.6, 673.0)">I</text><text xml:space="preserve" font-family="DINCondensed-Bold" font-weight="bold" font-size="48.4" fill="#747676" transform="matrix(1.00, 0.00, -0.00, -1.00, 532.5, 673.0)">N</text><text xml:space="preserve" font-family="DINCondensed-Bold" font-weight="bold" font-size="48.4" fill="#747676" transform="matrix(1.00, 0.00, -0.00, -1.00, 554.0, 673.0)">I</text><text xml:space="preserve" font-family="DINCondensed-Bold" font-weight="bold" font-size="48.4" fill="#747676" transform="matrix(1.00, 0.00, -0.00, -1.00, 563.8, 673.0)">T</text><text xml:space="preserve" font-family="DINCondensed-Bold" font-weight="bold" font-size="48.4" fill="#747676" transform="matrix(1.00, 0.00, -0.00, -1.00, 579.9, 673.0)">I</text><text xml:space="preserve" font-family="DINCondensed-Bold" font-weight="bold" font-size="48.4" fill="#747676" transform="matrix(1.00, 0.00, -0.00, -1.00, 589.8, 673.0)">A</text><text xml:space="preserve" font-family="DINCondensed-Bold" font-weight="bold" font-size="48.4" fill="#747676" transform="matrix(1.00, 0.00, -0.00, -1.00, 609.4, 673.0)">L</text><text xml:space="preserve" font-family="DINCondensed-Bold" font-weight="bold" font-size="48.4" fill="#747676" transform="matrix(1.00, 0.00, -0.00, -1.00, 627.3, 673.0)">I</text><text xml:space="preserve" font-family="DINCondensed-Bold" font-weight="bold" font-size="48.4" fill="#747676" transform="matrix(1.00, 0.00, -0.00, -1.00, 637.2, 673.0)">Z</text><text xml:space="preserve" font-family="DINCondensed-Bold" font-weight="bold" font-size="48.4" fill="#747676" transform="matrix(1.00, 0.00, -0.00, -1.00, 653.3, 673.0)">R</text><image xlink:href="13FB57596FB337EE53343E4432AF41E7.png" width="960.00" height="498.00" transform="matrix(1.07, 0.00, -0.00, -1.07, 0.0, 650.0)"></image><text xml:space="preserve" font-family="ZapfDingbatsITC" font-size="24.0" fill="#5C5C5C" transform="matrix(1.00, 0.00, -0.00, -1.00, 49.8, 83.2)">➤</text><text xml:space="preserve" font-family="IowanOldStyle-Roman" font-size="32.0" fill="#5C5C5C" transform="matrix(1.00, 0.00, -0.00, -1.00, 87.0, 80.0)">h</text><text xml:space="preserve" font-family="IowanOldStyle-Roman" font-size="32.0" fill="#5C5C5C" transform="matrix(1.00, 0.00, -0.00, -1.00, 105.7, 80.0)">t</text><text xml:space="preserve" font-family="IowanOldStyle-Roman" font-size="32.0" fill="#5C5C5C" transform="matrix(1.00, 0.00, -0.00, -1.00, 117.3, 80.0)">t</text><text xml:space="preserve" font-family="IowanOldStyle-Roman" font-size="32.0" fill="#5C5C5C" transform="matrix(1.00, 0.00, -0.00, -1.00, 128.8, 80.0)">p</text><text xml:space="preserve" font-family="IowanOldStyle-Roman" font-size="32.0" fill="#5C5C5C" transform="matrix(1.00, 0.00, -0.00, -1.00, 146.7, 80.0)">:</text><text xml:space="preserve" font-family="IowanOldStyle-Roman" font-size="32.0" fill="#5C5C5C" transform="matrix(1.00, 0.00, -0.00, -1.00, 155.6, 80.0)">/</text><text xml:space="preserve" font-family="IowanOldStyle-Roman" font-size="32.0" fill="#5C5C5C" transform="matrix(1.00, 0.00, -0.00, -1.00, 170.3, 80.0)">/</text><text xml:space="preserve" font-family="IowanOldStyle-Roman" font-size="32.0" fill="#5C5C5C" transform="matrix(1.00, 0.00, -0.00, -1.00, 185.1, 80.0)">s</text><text xml:space="preserve" font-family="IowanOldStyle-Roman" font-size="32.0" fill="#5C5C5C" transform="matrix(1.00, 0.00, -0.00, -1.00, 199.2, 80.0)">t</text><text xml:space="preserve" font-family="IowanOldStyle-Roman" font-size="32.0" fill="#5C5C5C" transform="matrix(1.00, 0.00, -0.00, -1.00, 210.8, 80.0)">a</text><text xml:space="preserve" font-family="IowanOldStyle-Roman" font-size="32.0" fill="#5C5C5C" transform="matrix(1.00, 0.00, -0.00, -1.00, 226.1, 80.0)">r</text><text xml:space="preserve" font-family="IowanOldStyle-Roman" font-size="32.0" fill="#5C5C5C" transform="matrix(1.00, 0.00, -0.00, -1.00, 238.6, 80.0)">t</text><text xml:space="preserve" font-family="IowanOldStyle-Roman" font-size="32.0" fill="#5C5C5C" transform="matrix(1.00, 0.00, -0.00, -1.00, 250.1, 80.0)">.</text><text xml:space="preserve" font-family="IowanOldStyle-Roman" font-size="32.0" fill="#5C5C5C" transform="matrix(1.00, 0.00, -0.00, -1.00, 259.0, 80.0)">s</text><text xml:space="preserve" font-family="IowanOldStyle-Roman" font-size="32.0" fill="#5C5C5C" transform="matrix(1.00, 0.00, -0.00, -1.00, 273.2, 80.0)">p</text><text xml:space="preserve" font-family="IowanOldStyle-Roman" font-size="32.0" fill="#5C5C5C" transform="matrix(1.00, 0.00, -0.00, -1.00, 291.1, 80.0)">r</text><text xml:space="preserve" font-family="IowanOldStyle-Roman" font-size="32.0" fill="#5C5C5C" transform="matrix(1.00, 0.00, -0.00, -1.00, 303.6, 80.0)">i</text><text xml:space="preserve" font-family="IowanOldStyle-Roman" font-size="32.0" fill="#5C5C5C" transform="matrix(1.00, 0.00, -0.00, -1.00, 313.1, 80.0)">n</text><text xml:space="preserve" font-family="IowanOldStyle-Roman" font-size="32.0" fill="#5C5C5C" transform="matrix(1.00, 0.00, -0.00, -1.00, 331.8, 80.0)">g</text><text xml:space="preserve" font-family="IowanOldStyle-Roman" font-size="32.0" fill="#5C5C5C" transform="matrix(1.00, 0.00, -0.00, -1.00, 348.3, 80.0)">.</text><text xml:space="preserve" font-family="IowanOldStyle-Roman" font-size="32.0" fill="#5C5C5C" transform="matrix(1.00, 0.00, -0.00, -1.00, 357.2, 80.0)">i</text><text xml:space="preserve" font-family="IowanOldStyle-Roman" font-size="32.0" fill="#5C5C5C" transform="matrix(1.00, 0.00, -0.00, -1.00, 366.7, 80.0)">o</text><text xml:space="preserve" font-family="IowanOldStyle-Roman" font-size="32.0" fill="#5C5C5C" transform="matrix(1.00, 0.00, -0.00, -1.00, 384.3, 80.0)">/</text><g><clipPath id="clip-3"><path d="M 85.8 73.6 L 398.9 73.6 L 398.9 77.4 L 85.8 77.4 Z M 85.8 73.6 "></path></clipPath><g clip-path="url(#clip-3)"><path d="M 41.0 41.5 L 353.1 41.5 " fill="none" stroke="#5C5C5C" stroke-width="1.70" stroke-miterlimit="0.00" transform="matrix(1.00, 0.00, 0.00, -1.00, 45.8, 117.0)"></path></g></g></g></svg>