<?xml version="1.0" encoding="UTF-8" standalone="no"?><svg xmlns="http://www.w3.org/2000/svg" xmlns:xlink="http://www.w3.org/1999/xlink" clip-rule="evenodd" stroke-miterlimit="4.00" viewBox="0 0 1024 768"><desc>SVG generated by Keynote</desc><defs></defs><g transform="matrix(1.00, 0.00, -0.00, -1.00, 0.0, 768.0)"><path d="M 0.0 768.0 L 1024.0 768.0 L 1024.0 0.0 L 0.0 0.0 Z M 0.0 768.0 " fill="#FFFFFF"></path><path d="M 0.0 341.0 L 1024.0 341.0 L 1024.0 57.0 L 0.0 57.0 Z M 0.0 341.0 " fill="#FFFFFF"></path><path d="M 0.0 0.0 L 935.0 0.0 " fill="none" stroke="#747676" stroke-width="3.00" stroke-linecap="round" stroke-linejoin="round" stroke-dasharray="0.0, 9.0" transform="matrix(1.00, 0.00, 0.00, -1.00, 45.0, 168.0)"></path><text xml:space="preserve" font-family="DINCondensed-Bold" font-weight="bold" font-size="121.0" fill="#5C5C5C" transform="matrix(1.00, 0.00, -0.00, -1.00, 759.9, 195.0)">D</text><text xml:space="preserve" font-family="DINCondensed-Bold" font-weight="bold" font-size="121.0" fill="#5C5C5C" transform="matrix(1.00, 0.00, -0.00, -1.00, 811.4, 195.0)">É</text><text xml:space="preserve" font-family="DINCondensed-Bold" font-weight="bold" font-size="121.0" fill="#5C5C5C" transform="matrix(1.00, 0.00, -0.00, -1.00, 856.2, 195.0)">M</text><text xml:space="preserve" font-family="DINCondensed-Bold" font-weight="bold" font-size="121.0" fill="#5C5C5C" transform="matrix(1.00, 0.00, -0.00, -1.00, 923.5, 195.0)">O</text><text xml:space="preserve" font-family="IowanOldStyle-Italic" font-style="italic" font-size="48.0" fill="#737575" transform="matrix(1.00, 0.00, -0.00, -1.00, 750.1, 109.8)">L</text><text xml:space="preserve" font-family="IowanOldStyle-Italic" font-style="italic" font-size="48.0" fill="#737575" transform="matrix(1.00, 0.00, -0.00, -1.00, 775.1, 109.8)">i</text><text xml:space="preserve" font-family="IowanOldStyle-Italic" font-style="italic" font-size="48.0" fill="#737575" transform="matrix(1.00, 0.00, -0.00, -1.00, 788.2, 109.8)">v</text><text xml:space="preserve" font-family="IowanOldStyle-Italic" font-style="italic" font-size="48.0" fill="#737575" transform="matrix(1.00, 0.00, -0.00, -1.00, 810.2, 109.8)">e</text><text xml:space="preserve" font-family="IowanOldStyle-Italic" font-style="italic" font-size="48.0" fill="#737575" transform="matrix(1.00, 0.00, -0.00, -1.00, 828.5, 109.8)"> </text><text xml:space="preserve" font-family="IowanOldStyle-Italic" font-style="italic" font-size="48.0" fill="#737575" transform="matrix(1.00, 0.00, -0.00, -1.00, 839.0, 109.8)">C</text><text xml:space="preserve" font-family="IowanOldStyle-Italic" font-style="italic" font-size="48.0" fill="#737575" transform="matrix(1.00, 0.00, -0.00, -1.00, 870.3, 109.8)">o</text><text xml:space="preserve" font-family="IowanOldStyle-Italic" font-style="italic" font-size="48.0" fill="#737575" transform="matrix(1.00, 0.00, -0.00, -1.00, 892.1, 109.8)">d</text><text xml:space="preserve" font-family="IowanOldStyle-Italic" font-style="italic" font-size="48.0" fill="#737575" transform="matrix(1.00, 0.00, -0.00, -1.00, 915.5, 109.8)">i</text><text xml:space="preserve" font-family="IowanOldStyle-Italic" font-style="italic" font-size="48.0" fill="#737575" transform="matrix(1.00, 0.00, -0.00, -1.00, 928.7, 109.8)">n</text><text xml:space="preserve" font-family="IowanOldStyle-Italic" font-style="italic" font-size="48.0" fill="#737575" transform="matrix(1.00, 0.00, -0.00, -1.00, 952.9, 109.8)">g</text><g><clipPath id="clip-6"><path d="M 139.0 525.0 L 639.0 525.0 L 639.0 150.0 L 139.0 150.0 Z M 139.2 525.3 "></path></clipPath><g clip-path="url(#clip-6)"><image xlink:href="../../D2D8CA5D-B0C4-445B-A310-456062AABAE8/assets/E81F580EA770343B5BF5E146C337AB08.png" width="501.00" height="452.00" transform="matrix(1.00, 0.00, -0.00, -1.00, 139.0, 564.0)"></image></g></g><image xlink:href="../../D2D8CA5D-B0C4-445B-A310-456062AABAE8/assets/710826E2F7DC6116DDCE6E952D618E8E.png" width="520.00" height="401.00" transform="matrix(1.00, 0.00, -0.00, 1.00, 129.2, 131.2)"></image></g></svg>