<?xml version="1.0" encoding="UTF-8" standalone="no"?><svg xmlns="http://www.w3.org/2000/svg" xmlns:xlink="http://www.w3.org/1999/xlink" clip-rule="evenodd" stroke-miterlimit="4.00" viewBox="0 0 1024 768"><desc>SVG generated by Keynote</desc><defs></defs><g transform="matrix(1.00, 0.00, -0.00, -1.00, 0.0, 768.0)"><path d="M 0.0 768.0 L 1024.0 768.0 L 1024.0 0.0 L 0.0 0.0 Z M 0.0 768.0 " fill="#FFFFFF"></path><text xml:space="preserve" font-family="IowanOldStyle-Roman" font-size="31.7" fill="#747675" transform="matrix(1.00, 0.00, -0.00, -1.00, 340.0, 371.0)">M</text><text xml:space="preserve" font-family="IowanOldStyle-Roman" font-size="31.7" fill="#747675" transform="matrix(1.00, 0.00, -0.00, -1.00, 368.8, 371.0)">e</text><text xml:space="preserve" font-family="IowanOldStyle-Roman" font-size="31.7" fill="#747675" transform="matrix(1.00, 0.00, -0.00, -1.00, 384.3, 371.0)">r</text><text xml:space="preserve" font-family="IowanOldStyle-Roman" font-size="31.7" fill="#747675" transform="matrix(1.00, 0.00, -0.00, -1.00, 396.6, 371.0)">c</text><text xml:space="preserve" font-family="IowanOldStyle-Roman" font-size="31.7" fill="#747675" transform="matrix(1.00, 0.00, -0.00, -1.00, 410.8, 371.0)">i</text><text xml:space="preserve" font-family="IowanOldStyle-Roman" font-size="31.7" fill="#747675" transform="matrix(1.00, 0.00, -0.00, -1.00, 420.2, 371.0)"> </text><text xml:space="preserve" font-family="IowanOldStyle-Roman" font-size="31.7" fill="#747675" transform="matrix(1.00, 0.00, -0.00, -1.00, 429.0, 371.0)">d</text><text xml:space="preserve" font-family="IowanOldStyle-Roman" font-size="31.7" fill="#747675" transform="matrix(1.00, 0.00, -0.00, -1.00, 446.8, 371.0)">e</text><text xml:space="preserve" font-family="IowanOldStyle-Roman" font-size="31.7" fill="#747675" transform="matrix(1.00, 0.00, -0.00, -1.00, 462.2, 371.0)"> </text><text xml:space="preserve" font-family="IowanOldStyle-Roman" font-size="31.7" fill="#747675" transform="matrix(1.00, 0.00, -0.00, -1.00, 471.0, 371.0)">v</text><text xml:space="preserve" font-family="IowanOldStyle-Roman" font-size="31.7" fill="#747675" transform="matrix(1.00, 0.00, -0.00, -1.00, 486.6, 371.0)">o</text><text xml:space="preserve" font-family="IowanOldStyle-Roman" font-size="31.7" fill="#747675" transform="matrix(1.00, 0.00, -0.00, -1.00, 504.1, 371.0)">t</text><text xml:space="preserve" font-family="IowanOldStyle-Roman" font-size="31.7" fill="#747675" transform="matrix(1.00, 0.00, -0.00, -1.00, 515.4, 371.0)">r</text><text xml:space="preserve" font-family="IowanOldStyle-Roman" font-size="31.7" fill="#747675" transform="matrix(1.00, 0.00, -0.00, -1.00, 527.8, 371.0)">e</text><text xml:space="preserve" font-family="IowanOldStyle-Roman" font-size="31.7" fill="#747675" transform="matrix(1.00, 0.00, -0.00, -1.00, 543.3, 371.0)"> </text><text xml:space="preserve" font-family="IowanOldStyle-Roman" font-size="31.7" fill="#747675" transform="matrix(1.00, 0.00, -0.00, -1.00, 552.1, 371.0)">a</text><text xml:space="preserve" font-family="IowanOldStyle-Roman" font-size="31.7" fill="#747675" transform="matrix(1.00, 0.00, -0.00, -1.00, 567.3, 371.0)">t</text><text xml:space="preserve" font-family="IowanOldStyle-Roman" font-size="31.7" fill="#747675" transform="matrix(1.00, 0.00, -0.00, -1.00, 578.7, 371.0)">t</text><text xml:space="preserve" font-family="IowanOldStyle-Roman" font-size="31.7" fill="#747675" transform="matrix(1.00, 0.00, -0.00, -1.00, 590.1, 371.0)">e</text><text xml:space="preserve" font-family="IowanOldStyle-Roman" font-size="31.7" fill="#747675" transform="matrix(1.00, 0.00, -0.00, -1.00, 605.5, 371.0)">n</text><text xml:space="preserve" font-family="IowanOldStyle-Roman" font-size="31.7" fill="#747675" transform="matrix(1.00, 0.00, -0.00, -1.00, 624.0, 371.0)">t</text><text xml:space="preserve" font-family="IowanOldStyle-Roman" font-size="31.7" fill="#747675" transform="matrix(1.00, 0.00, -0.00, -1.00, 635.4, 371.0)">i</text><text xml:space="preserve" font-family="IowanOldStyle-Roman" font-size="31.7" fill="#747675" transform="matrix(1.00, 0.00, -0.00, -1.00, 644.8, 371.0)">o</text><text xml:space="preserve" font-family="IowanOldStyle-Roman" font-size="31.7" fill="#747675" transform="matrix(1.00, 0.00, -0.00, -1.00, 662.3, 371.0)">n</text></g></svg>